<?xml version="1.0" encoding="UTF-8" standalone="no"?>
<svg
   xmlns:dc="http://purl.org/dc/elements/1.1/"
   xmlns:cc="http://creativecommons.org/ns#"
   xmlns:rdf="http://www.w3.org/1999/02/22-rdf-syntax-ns#"
   xmlns:svg="http://www.w3.org/2000/svg"
   xmlns="http://www.w3.org/2000/svg"
   xmlns:sodipodi="http://sodipodi.sourceforge.net/DTD/sodipodi-0.dtd"
   xmlns:inkscape="http://www.inkscape.org/namespaces/inkscape"
   version="1.1"
   viewBox="0 0 200 135.71429"
   width="200mm"
   height="150mm"
   id="logo"
   sodipodi:docname="word-mark-dark-tall.svg"
   inkscape:version="0.92.2 5c3e80d, 2017-08-06">
  <metadata
     id="metadata886">
    <rdf:RDF>
      <cc:Work
         rdf:about="">
        <dc:format>image/svg+xml</dc:format>
        <dc:type
           rdf:resource="http://purl.org/dc/dcmitype/StillImage" />
        <dc:title></dc:title>
      </cc:Work>
    </rdf:RDF>
  </metadata>
  <defs
     id="defs884" />
  <sodipodi:namedview
     pagecolor="#ffffff"
     bordercolor="#666666"
     borderopacity="1"
     objecttolerance="10"
     gridtolerance="10"
     guidetolerance="10"
     inkscape:pageopacity="0"
     inkscape:pageshadow="2"
     inkscape:window-width="1280"
     inkscape:window-height="755"
     id="namedview882"
     showgrid="true"
     inkscape:zoom="0.45"
     inkscape:cx="444.36674"
     inkscape:cy="160.03515"
     inkscape:window-x="0"
     inkscape:window-y="1"
     inkscape:window-maximized="1"
     inkscape:current-layer="text25">
    <inkscape:grid
       type="xygrid"
       id="grid1456" />
  </sodipodi:namedview>
  <g
     id="pentagons"
     transform="matrix(0.55,0,0,0.55,42.096333,-1.89603)">
    <path
       id="topleft"
       style="opacity:1;fill:#ffef00;fill-opacity:1;fill-rule:nonzero;stroke:#000000;stroke-width:3;stroke-linejoin:round;stroke-miterlimit:4;stroke-dasharray:none;stroke-opacity:1"
       d="M 69.231583,31.943134 100.7159,32.002614 84.788854,82.014173 42.507525,113.1127 32.168286,92.893368 Z"
       inkscape:connector-curvature="0" />
    <path
       id="topright"
       style="opacity:1;fill:#ffffff;fill-opacity:1;fill-rule:nonzero;stroke:#000000;stroke-width:3;stroke-linejoin:round;stroke-miterlimit:4;stroke-dasharray:none;stroke-opacity:1"
       d="M 144.23976,32.122487 100.7159,32.002616 84.788854,82.014173 127.43091,112.61616 169.71224,81.517635 Z"
       inkscape:connector-curvature="0" />
    <path
       id="bottomleft"
       style="opacity:1;fill:#000000;fill-opacity:1;fill-rule:nonzero;stroke:#000000;stroke-width:3;stroke-linejoin:round;stroke-miterlimit:4;stroke-dasharray:none;stroke-opacity:1"
       d="m 67.980004,162.50785 43.523836,0.11987 15.92707,-50.01156 L 84.788854,82.014173 42.507525,113.1127 Z"
       inkscape:connector-curvature="0" />
    <path
       id="bottomright"
       style="opacity:1;fill:#ffef00;fill-opacity:1;fill-rule:nonzero;stroke:#000000;stroke-width:3;stroke-linejoin:round;stroke-miterlimit:4;stroke-dasharray:none;stroke-opacity:1"
       d="m 142.98818,162.6872 -31.48434,-0.0595 15.92707,-50.01156 42.28133,-31.098526 10.33924,20.219316 z"
       inkscape:connector-curvature="0" />
  </g>
  <g
     aria-label="ANALYTHIUM"
     style="font-style:normal;font-variant:normal;font-weight:600;font-stretch:normal;font-size:63.5px;line-height:125%;font-family:'Exo 2';-inkscape-font-specification:'Exo 2 Semi-Bold';letter-spacing:0px;word-spacing:0px;fill:#000000;fill-opacity:1;stroke:none;stroke-width:0.26458332px;stroke-linecap:butt;stroke-linejoin:miter;stroke-opacity:1"
     id="text1454"
     transform="translate(0,34.999999)" />
  <g
     aria-label="ANALYTHIUM"
     style="font-style:normal;font-weight:normal;font-size:10.58333302px;line-height:125%;font-family:sans-serif;letter-spacing:0px;word-spacing:0px;fill:#000000;fill-opacity:1;stroke:none;stroke-width:0.26458332px;stroke-linecap:butt;stroke-linejoin:miter;stroke-opacity:1"
     id="text25">
    <path
       d="m 30.065441,102.58195 q 0.423333,0 0.740833,0.23813 0.3175,0.23812 0.449792,0.635 l 5.529792,17.38312 h -3.386667 l -4.180417,-14.07583 q -0.105833,-0.42333 -0.211667,-0.84667 -0.105833,-0.42333 -0.185208,-0.82021 h -0.740833 q -0.07937,0.39688 -0.185209,0.82021 -0.105833,0.42334 -0.238125,0.84667 l -4.153958,14.07583 h -3.386667 l 5.529792,-17.38312 q 0.105833,-0.39688 0.423333,-0.635 0.343959,-0.23813 0.767292,-0.23813 z m 3.069167,10.45104 v 2.59292 h -9.392709 v -2.59292 z"
       style="font-style:normal;font-variant:normal;font-weight:600;font-stretch:normal;font-size:26.45833397px;font-family:'Exo 2';-inkscape-font-specification:'Exo 2 Semi-Bold';text-align:center;text-anchor:middle;stroke-width:0.26458332px"
       id="path27"
       inkscape:connector-curvature="0" />
    <path
       d="m 53.815104,102.58195 v 17.01271 q 0,1.24354 -1.217084,1.24354 h -2.248958 q -0.555625,0 -0.846667,-0.23812 -0.291041,-0.26458 -0.529166,-0.76729 l -5.529792,-11.00667 q -0.291042,-0.58208 -0.608542,-1.27 -0.291042,-0.71438 -0.47625,-1.34938 h -0.343958 q 0.05292,0.66146 0.07937,1.34938 0.05292,0.66146 0.05292,1.32292 v 11.95916 h -3.175 v -17.01271 q 0,-1.24354 1.217084,-1.24354 h 2.196041 q 0.555625,0 0.846667,0.26459 0.291042,0.23812 0.529167,0.74083 l 5.371042,10.71562 q 0.3175,0.58209 0.635,1.32292 0.343958,0.71438 0.635,1.45521 h 0.396875 q -0.05292,-0.76729 -0.105834,-1.48167 -0.02646,-0.74083 -0.02646,-1.45521 v -11.56229 z"
       style="font-style:normal;font-variant:normal;font-weight:600;font-stretch:normal;font-size:26.45833397px;font-family:'Exo 2';-inkscape-font-specification:'Exo 2 Semi-Bold';text-align:center;text-anchor:middle;stroke-width:0.26458332px"
       id="path29"
       inkscape:connector-curvature="0" />
    <path
       d="m 65.928886,102.58195 q 0.423333,0 0.740833,0.23813 0.3175,0.23812 0.449792,0.635 l 5.529792,17.38312 h -3.386667 l -4.180417,-14.07583 q -0.105833,-0.42333 -0.211666,-0.84667 -0.105834,-0.42333 -0.185209,-0.82021 h -0.740833 q -0.07937,0.39688 -0.185208,0.82021 -0.105834,0.42334 -0.238125,0.84667 l -4.153959,14.07583 h -3.386666 l 5.529791,-17.38312 q 0.105834,-0.39688 0.423334,-0.635 0.343958,-0.23813 0.767291,-0.23813 z m 3.069167,10.45104 v 2.59292 h -9.392709 v -2.59292 z"
       style="font-style:normal;font-variant:normal;font-weight:600;font-stretch:normal;font-size:26.45833397px;font-family:'Exo 2';-inkscape-font-specification:'Exo 2 Semi-Bold';text-align:center;text-anchor:middle;stroke-width:0.26458332px"
       id="path31"
       inkscape:connector-curvature="0" />
    <path
       d="m 78.06334,102.58195 v 14.02292 q 0,0.76729 0.396875,1.16417 0.423334,0.37041 1.190625,0.37041 h 6.455834 l 0.15875,2.51355 q -1.799167,0.15875 -3.757084,0.1852 -1.931458,0.0529 -3.836458,0.0529 -2.010833,0 -2.963333,-1.03187 -0.926042,-1.03188 -0.926042,-2.61938 v -14.65792 z"
       style="font-style:normal;font-variant:normal;font-weight:600;font-stretch:normal;font-size:26.45833397px;font-family:'Exo 2';-inkscape-font-specification:'Exo 2 Semi-Bold';text-align:center;text-anchor:middle;stroke-width:0.26458332px"
       id="path33"
       inkscape:connector-curvature="0" />
    <path
       d="m 99.621097,102.58195 -6.164792,12.27667 h -3.069167 l -6.19125,-12.27667 h 3.466042 l 3.386667,7.14375 q 0.238125,0.50271 0.396875,1.08479 0.185208,0.58209 0.370417,1.11125 h 0.211666 q 0.15875,-0.52916 0.343959,-1.11125 0.185208,-0.58208 0.396875,-1.08479 l 3.386666,-7.14375 z m -6.058958,10.18646 v 8.06979 h -3.307292 v -8.06979 z"
       style="font-style:normal;font-variant:normal;font-weight:600;font-stretch:normal;font-size:26.45833397px;font-family:'Exo 2';-inkscape-font-specification:'Exo 2 Semi-Bold';text-align:center;text-anchor:middle;stroke-width:0.26458332px"
       id="path35"
       inkscape:connector-curvature="0" />
    <path
       d="m 109.27177,102.58195 v 18.25625 h -3.30729 v -18.25625 z m 5.66208,0 v 2.69875 H 100.3024 v -2.69875 z"
       style="font-style:normal;font-variant:normal;font-weight:600;font-stretch:normal;font-size:26.45833397px;font-family:'Exo 2';-inkscape-font-specification:'Exo 2 Semi-Bold';text-align:center;text-anchor:middle;stroke-width:0.26458332px"
       id="path37"
       inkscape:connector-curvature="0" />
    <path
       d="m 120.82745,102.58195 v 18.25625 h -3.3073 v -18.25625 z m 7.62,7.22313 v 2.59291 h -7.83167 v -2.59291 z m 3.01625,-7.22313 v 18.25625 h -3.3073 v -18.25625 z"
       style="font-style:normal;font-variant:normal;font-weight:600;font-stretch:normal;font-size:26.45833397px;font-family:'Exo 2';-inkscape-font-specification:'Exo 2 Semi-Bold';text-align:center;text-anchor:middle;stroke-width:0.26458332px"
       id="path39"
       inkscape:connector-curvature="0" />
    <path
       d="m 138.86253,102.58195 v 18.25625 h -3.3073 v -18.25625 z"
       style="font-style:normal;font-variant:normal;font-weight:600;font-stretch:normal;font-size:26.45833397px;font-family:'Exo 2';-inkscape-font-specification:'Exo 2 Semi-Bold';text-align:center;text-anchor:middle;stroke-width:0.26458332px"
       id="path41"
       inkscape:connector-curvature="0" />
    <path
       d="m 156.91497,102.58195 v 11.1125 q 0,2.72521 -0.66146,4.36563 -0.66146,1.64042 -2.16958,2.38125 -1.50813,0.74083 -4.04813,0.74083 -2.64583,0 -4.23333,-0.74083 -1.5875,-0.74083 -2.30188,-2.38125 -0.68792,-1.64042 -0.68792,-4.36563 v -11.1125 h 3.3073 v 11.1125 q 0,1.79917 0.34395,2.8575 0.37042,1.05834 1.19063,1.50813 0.82021,0.42333 2.2225,0.42333 1.40229,0 2.19604,-0.42333 0.82021,-0.44979 1.16417,-1.50813 0.37042,-1.05833 0.37042,-2.8575 v -11.1125 z"
       style="font-style:normal;font-variant:normal;font-weight:600;font-stretch:normal;font-size:26.45833397px;font-family:'Exo 2';-inkscape-font-specification:'Exo 2 Semi-Bold';text-align:center;text-anchor:middle;stroke-width:0.26458332px"
       id="path43"
       inkscape:connector-curvature="0" />
    <path
       d="m 178.94773,102.58195 q 1.24354,0 1.27,1.27 l 0.71438,16.98625 h -3.14854 l -0.635,-15.63687 h -0.50271 l -3.41313,12.25021 q -0.23812,1.08479 -1.34937,1.08479 h -2.32834 q -1.1377,0 -1.40229,-1.08479 l -3.41312,-12.25021 h -0.50271 l -0.58208,15.63687 h -3.14855 l 0.71438,-16.98625 q 0.0529,-1.27 1.27,-1.27 h 3.30729 q 1.05833,0 1.32292,1.08479 l 2.80458,10.00125 q 0.18521,0.635 0.29104,1.27 0.13229,0.635 0.29104,1.27 h 0.39688 q 0.15875,-0.635 0.29104,-1.27 0.13229,-0.635 0.29104,-1.29645 l 2.80459,-9.9748 q 0.23812,-1.08479 1.34937,-1.08479 z"
       style="font-style:normal;font-variant:normal;font-weight:600;font-stretch:normal;font-size:26.45833397px;font-family:'Exo 2';-inkscape-font-specification:'Exo 2 Semi-Bold';text-align:center;text-anchor:middle;stroke-width:0.26458332px"
       id="path45"
       inkscape:connector-curvature="0" />
  </g>
</svg>
