<?xml version="1.0" encoding="UTF-8" standalone="no"?>
<svg
   xmlns:dc="http://purl.org/dc/elements/1.1/"
   xmlns:cc="http://creativecommons.org/ns#"
   xmlns:rdf="http://www.w3.org/1999/02/22-rdf-syntax-ns#"
   xmlns:svg="http://www.w3.org/2000/svg"
   xmlns="http://www.w3.org/2000/svg"
   xmlns:sodipodi="http://sodipodi.sourceforge.net/DTD/sodipodi-0.dtd"
   xmlns:inkscape="http://www.inkscape.org/namespaces/inkscape"
   version="1.1"
   viewBox="0 0 525 104.04762"
   width="525mm"
   height="115mm"
   id="logo"
   sodipodi:docname="word-mark-dark.svg"
   inkscape:version="0.92.2 5c3e80d, 2017-08-06">
  <metadata
     id="metadata886">
    <rdf:RDF>
      <cc:Work
         rdf:about="">
        <dc:format>image/svg+xml</dc:format>
        <dc:type
           rdf:resource="http://purl.org/dc/dcmitype/StillImage" />
        <dc:title />
      </cc:Work>
    </rdf:RDF>
  </metadata>
  <defs
     id="defs884" />
  <sodipodi:namedview
     pagecolor="#ffffff"
     bordercolor="#666666"
     borderopacity="1"
     objecttolerance="10"
     gridtolerance="10"
     guidetolerance="10"
     inkscape:pageopacity="0"
     inkscape:pageshadow="2"
     inkscape:window-width="1280"
     inkscape:window-height="755"
     id="namedview882"
     showgrid="true"
     inkscape:zoom="0.45"
     inkscape:cx="933.18464"
     inkscape:cy="248.92404"
     inkscape:window-x="0"
     inkscape:window-y="1"
     inkscape:window-maximized="1"
     inkscape:current-layer="text1454">
    <inkscape:grid
       type="xygrid"
       id="grid1456" />
  </sodipodi:namedview>
  <g
     id="pentagons"
     transform="matrix(0.55,0,0,0.55,3.495764,-2.8590919)">
    <path
       id="topleft"
       style="opacity:1;fill:#ffef00;fill-opacity:1;fill-rule:nonzero;stroke:#000000;stroke-width:3;stroke-linejoin:round;stroke-miterlimit:4;stroke-dasharray:none;stroke-opacity:1"
       d="M 69.231583,31.943134 100.7159,32.002614 84.788854,82.014173 42.507525,113.1127 32.168286,92.893368 Z"
       inkscape:connector-curvature="0" />
    <path
       id="topright"
       style="opacity:1;fill:#ffffff;fill-opacity:1;fill-rule:nonzero;stroke:#000000;stroke-width:3;stroke-linejoin:round;stroke-miterlimit:4;stroke-dasharray:none;stroke-opacity:1"
       d="M 144.23976,32.122487 100.7159,32.002616 84.788854,82.014173 127.43091,112.61616 169.71224,81.517635 Z"
       inkscape:connector-curvature="0" />
    <path
       id="bottomleft"
       style="opacity:1;fill:#000000;fill-opacity:1;fill-rule:nonzero;stroke:#000000;stroke-width:3;stroke-linejoin:round;stroke-miterlimit:4;stroke-dasharray:none;stroke-opacity:1"
       d="m 67.980004,162.50785 43.523836,0.11987 15.92707,-50.01156 L 84.788854,82.014173 42.507525,113.1127 Z"
       inkscape:connector-curvature="0" />
    <path
       id="bottomright"
       style="opacity:1;fill:#ffef00;fill-opacity:1;fill-rule:nonzero;stroke:#000000;stroke-width:3;stroke-linejoin:round;stroke-miterlimit:4;stroke-dasharray:none;stroke-opacity:1"
       d="m 142.98818,162.6872 -31.48434,-0.0595 15.92707,-50.01156 42.28133,-31.098526 10.33924,20.219316 z"
       inkscape:connector-curvature="0" />
  </g>
  <g
     aria-label="ANALYTHIUM"
     style="font-style:normal;font-variant:normal;font-weight:600;font-stretch:normal;font-size:63.5px;line-height:125%;font-family:'Exo 2';-inkscape-font-specification:'Exo 2 Semi-Bold';letter-spacing:0px;word-spacing:0px;fill:#000000;fill-opacity:1;stroke:none;stroke-width:0.26458332px;stroke-linecap:butt;stroke-linejoin:miter;stroke-opacity:1"
     id="text1454">
    <path
       d="m 140.57326,29.020861 q 1.016,0 1.778,0.5715 0.762,0.5715 1.0795,1.524 l 13.2715,41.7195 h -8.128 l -10.033,-33.782 q -0.254,-1.016 -0.508,-2.032 -0.254,-1.016 -0.4445,-1.9685 h -1.778 q -0.1905,0.9525 -0.4445,1.9685 -0.254,1.016 -0.5715,2.032 l -9.9695,33.782 h -8.128 l 13.2715,-41.7195 q 0.254,-0.9525 1.016,-1.524 0.8255,-0.5715 1.8415,-0.5715 z m 7.366,25.0825 v 6.223 h -22.5425 v -6.223 z"
       style="font-style:normal;font-variant:normal;font-weight:600;font-stretch:normal;font-size:63.5px;font-family:'Exo 2';-inkscape-font-specification:'Exo 2 Semi-Bold';stroke-width:0.26458332px"
       id="path14"
       inkscape:connector-curvature="0" />
    <path
       d="m 197.57245,29.020861 v 40.8305 q 0,2.9845 -2.921,2.9845 h -5.3975 q -1.3335,0 -2.032,-0.5715 -0.6985,-0.635 -1.27,-1.8415 l -13.2715,-26.416 q -0.6985,-1.397 -1.4605,-3.048 -0.6985,-1.7145 -1.143,-3.2385 h -0.8255 q 0.127,1.5875 0.1905,3.2385 0.127,1.5875 0.127,3.175 v 28.702 h -7.62 v -40.8305 q 0,-2.9845 2.921,-2.9845 h 5.2705 q 1.3335,0 2.032,0.635 0.6985,0.5715 1.27,1.778 l 12.8905,25.7175 q 0.762,1.397 1.524,3.175 0.8255,1.7145 1.524,3.4925 h 0.9525 q -0.127,-1.8415 -0.254,-3.556 -0.0635,-1.778 -0.0635,-3.4925 v -27.7495 z"
       style="font-style:normal;font-variant:normal;font-weight:600;font-stretch:normal;font-size:63.5px;font-family:'Exo 2';-inkscape-font-specification:'Exo 2 Semi-Bold';stroke-width:0.26458332px"
       id="path16"
       inkscape:connector-curvature="0" />
    <path
       d="m 226.64553,29.020861 q 1.016,0 1.778,0.5715 0.762,0.5715 1.0795,1.524 l 13.2715,41.7195 h -8.128 l -10.033,-33.782 q -0.254,-1.016 -0.508,-2.032 -0.254,-1.016 -0.4445,-1.9685 h -1.778 q -0.1905,0.9525 -0.4445,1.9685 -0.254,1.016 -0.5715,2.032 l -9.9695,33.782 h -8.128 l 13.2715,-41.7195 q 0.254,-0.9525 1.016,-1.524 0.8255,-0.5715 1.8415,-0.5715 z m 7.366,25.0825 v 6.223 h -22.5425 v -6.223 z"
       style="font-style:normal;font-variant:normal;font-weight:600;font-stretch:normal;font-size:63.5px;font-family:'Exo 2';-inkscape-font-specification:'Exo 2 Semi-Bold';stroke-width:0.26458332px"
       id="path18"
       inkscape:connector-curvature="0" />
    <path
       d="m 255.76821,29.020861 v 33.655 q 0,1.8415 0.9525,2.794 1.016,0.889 2.8575,0.889 h 15.494 l 0.381,6.0325 q -4.318,0.381 -9.017,0.4445 -4.6355,0.127 -9.2075,0.127 -4.826,0 -7.112,-2.4765 -2.2225,-2.4765 -2.2225,-6.2865 v -35.179 z"
       style="font-style:normal;font-variant:normal;font-weight:600;font-stretch:normal;font-size:63.5px;font-family:'Exo 2';-inkscape-font-specification:'Exo 2 Semi-Bold';stroke-width:0.26458332px"
       id="path20"
       inkscape:connector-curvature="0" />
    <path
       d="m 307.50682,29.020861 -14.7955,29.464 h -7.366 l -14.859,-29.464 h 8.3185 l 8.128,17.145 q 0.5715,1.2065 0.9525,2.6035 0.4445,1.397 0.889,2.667 h 0.508 q 0.381,-1.27 0.8255,-2.667 0.4445,-1.397 0.9525,-2.6035 l 8.128,-17.145 z m -14.5415,24.4475 v 19.3675 h -7.9375 v -19.3675 z"
       style="font-style:normal;font-variant:normal;font-weight:600;font-stretch:normal;font-size:63.5px;font-family:'Exo 2';-inkscape-font-specification:'Exo 2 Semi-Bold';stroke-width:0.26458332px"
       id="path22"
       inkscape:connector-curvature="0" />
    <path
       d="m 330.66845,29.020861 v 43.815 h -7.9375 v -43.815 z m 13.589,0 v 6.477 h -35.1155 v -6.477 z"
       style="font-style:normal;font-variant:normal;font-weight:600;font-stretch:normal;font-size:63.5px;font-family:'Exo 2';-inkscape-font-specification:'Exo 2 Semi-Bold';stroke-width:0.26458332px"
       id="path24"
       inkscape:connector-curvature="0" />
    <path
       d="m 358.40207,29.020861 v 43.815 h -7.9375 v -43.815 z m 18.288,17.3355 v 6.223 h -18.796 v -6.223 z m 7.239,-17.3355 v 43.815 h -7.9375 v -43.815 z"
       style="font-style:normal;font-variant:normal;font-weight:600;font-stretch:normal;font-size:63.5px;font-family:'Exo 2';-inkscape-font-specification:'Exo 2 Semi-Bold';stroke-width:0.26458332px"
       id="path26"
       inkscape:connector-curvature="0" />
    <path
       d="m 401.68625,29.020861 v 43.815 h -7.9375 v -43.815 z"
       style="font-style:normal;font-variant:normal;font-weight:600;font-stretch:normal;font-size:63.5px;font-family:'Exo 2';-inkscape-font-specification:'Exo 2 Semi-Bold';stroke-width:0.26458332px"
       id="path28"
       inkscape:connector-curvature="0" />
    <path
       d="m 445.0121,29.020861 v 26.67 q 0,6.5405 -1.5875,10.4775 -1.5875,3.937 -5.207,5.715 -3.6195,1.778 -9.7155,1.778 -6.35,0 -10.16,-1.778 -3.81,-1.778 -5.5245,-5.715 -1.651,-3.937 -1.651,-10.4775 v -26.67 h 7.9375 v 26.67 q 0,4.318 0.8255,6.858 0.889,2.54 2.8575,3.6195 1.9685,1.016 5.334,1.016 3.3655,0 5.2705,-1.016 1.9685,-1.0795 2.794,-3.6195 0.889,-2.54 0.889,-6.858 v -26.67 z"
       style="font-style:normal;font-variant:normal;font-weight:600;font-stretch:normal;font-size:63.5px;font-family:'Exo 2';-inkscape-font-specification:'Exo 2 Semi-Bold';stroke-width:0.26458332px"
       id="path30"
       inkscape:connector-curvature="0" />
    <path
       d="m 497.89074,29.020861 q 2.9845,0 3.048,3.048 l 1.7145,40.767 h -7.5565 l -1.524,-37.5285 h -1.2065 l -8.1915,29.4005 q -0.5715,2.6035 -3.2385,2.6035 h -5.588 q -2.7305,0 -3.3655,-2.6035 l -8.1915,-29.4005 h -1.2065 l -1.397,37.5285 h -7.5565 l 1.7145,-40.767 q 0.127,-3.048 3.048,-3.048 h 7.9375 q 2.54,0 3.175,2.6035 l 6.731,24.003 q 0.4445,1.524 0.6985,3.048 0.3175,1.524 0.6985,3.048 h 0.9525 q 0.381,-1.524 0.6985,-3.048 0.3175,-1.524 0.6985,-3.1115 l 6.731,-23.9395 q 0.5715,-2.6035 3.2385,-2.6035 z"
       style="font-style:normal;font-variant:normal;font-weight:600;font-stretch:normal;font-size:63.5px;font-family:'Exo 2';-inkscape-font-specification:'Exo 2 Semi-Bold';stroke-width:0.26458332px"
       id="path32"
       inkscape:connector-curvature="0" />
  </g>
</svg>
